REM DIRINDEX 1\2\3,1\2\4,1\2\5,1\2\6
REM DIRNAME folder01,folder02,folder03,folder04,folder05,folder06
TITLE ""
FILE "151 151.mp3" MP3
  TRACK 01 AUDIO
    TITLE "0:"
    INDEX 01 00:00:00
  TRACK 02 AUDIO
    TITLE "3:cjc157_5562"
    INDEX 01 00:00:11
  TRACK 03 AUDIO
    TITLE "0:"
    INDEX 01 00:01:24
  TRACK 04 AUDIO
    TITLE "4:cjc157_5563"
    INDEX 01 00:01:71
  TRACK 05 AUDIO
    TITLE "0:"
    INDEX 01 00:03:10
  TRACK 06 AUDIO
    TITLE "5:cjc157_5564"
    INDEX 01 00:03:63
  TRACK 07 AUDIO
    TITLE "0:"
    INDEX 01 00:05:40
  TRACK 08 AUDIO
    TITLE "3:cjc157_5565"
    INDEX 01 00:06:10
  TRACK 09 AUDIO
    TITLE "0:"
    INDEX 01 00:07:29
  TRACK 10 AUDIO
    TITLE "4:cjc157_5566"
    INDEX 01 00:07:72
  TRACK 11 AUDIO
    TITLE "0:"
    INDEX 01 00:09:34
  TRACK 12 AUDIO
    TITLE "5:cjc157_5567"
    INDEX 01 00:10:06
  TRACK 13 AUDIO
    TITLE "0:"
    INDEX 01 00:13:26
  TRACK 14 AUDIO
    TITLE "3:cjc157_5568"
    INDEX 01 00:13:73
  TRACK 15 AUDIO
    TITLE "0:"
    INDEX 01 00:15:13
  TRACK 16 AUDIO
    TITLE "4:cjc157_5569"
    INDEX 01 00:15:60
  TRACK 17 AUDIO
    TITLE "0:"
    INDEX 01 00:17:20
  TRACK 18 AUDIO
    TITLE "5:cjc157_5570"
    INDEX 01 00:17:69
  TRACK 19 AUDIO
    TITLE "0:"
    INDEX 01 00:23:22
  TRACK 20 AUDIO
    TITLE "3:cjc157_5571"
    INDEX 01 00:23:73
  TRACK 21 AUDIO
    TITLE "0:"
    INDEX 01 00:25:05
  TRACK 22 AUDIO
    TITLE "4:cjc157_5572"
    INDEX 01 00:25:52
  TRACK 23 AUDIO
    TITLE "0:"
    INDEX 01 00:27:00
  TRACK 24 AUDIO
    TITLE "5:cjc157_5573"
    INDEX 01 00:27:47
  TRACK 25 AUDIO
    TITLE "0:"
    INDEX 01 00:30:69
  TRACK 26 AUDIO
    TITLE "3:cjc157_5574"
    INDEX 01 00:31:39
  TRACK 27 AUDIO
    TITLE "0:"
    INDEX 01 00:32:60
  TRACK 28 AUDIO
    TITLE "4:cjc157_5575"
    INDEX 01 00:33:30
  TRACK 29 AUDIO
    TITLE "0:"
    INDEX 01 00:34:53
  TRACK 30 AUDIO
    TITLE "5:cjc157_5576"
    INDEX 01 00:35:23
  TRACK 31 AUDIO
    TITLE "0:"
    INDEX 01 00:38:39
  TRACK 32 AUDIO
    TITLE "5:cjc157_5577"
    INDEX 01 00:39:11
  TRACK 33 AUDIO
    TITLE "0:"
    INDEX 01 00:45:51
  TRACK 34 AUDIO
    TITLE "3:cjc157_5578"
    INDEX 01 00:46:25
  TRACK 35 AUDIO
    TITLE "0:"
    INDEX 01 00:47:36
  TRACK 36 AUDIO
    TITLE "4:cjc157_5579"
    INDEX 01 00:48:06
  TRACK 37 AUDIO
    TITLE "0:"
    INDEX 01 00:49:45
  TRACK 38 AUDIO
    TITLE "5:cjc157_5580"
    INDEX 01 00:50:13
  TRACK 39 AUDIO
    TITLE "0:"
    INDEX 01 00:53:02
  TRACK 40 AUDIO
    TITLE "3:cjc157_5581"
    INDEX 01 00:53:43
  TRACK 41 AUDIO
    TITLE "0:"
    INDEX 01 00:55:10
  TRACK 42 AUDIO
    TITLE "4:cjc157_5582"
    INDEX 01 00:55:55
  TRACK 43 AUDIO
    TITLE "0:"
    INDEX 01 00:57:19
  TRACK 44 AUDIO
    TITLE "5:cjc157_5583"
    INDEX 01 00:57:62
  TRACK 45 AUDIO
    TITLE "0:"
    INDEX 01 01:01:38
  TRACK 46 AUDIO
    TITLE "5:cjc157_5584"
    INDEX 01 01:02:08
  TRACK 47 AUDIO
    TITLE "0:"
    INDEX 01 01:05:09
  TRACK 48 AUDIO
    TITLE "3:cjc157_5585"
    INDEX 01 01:05:56
  TRACK 49 AUDIO
    TITLE "0:"
    INDEX 01 01:07:23
  TRACK 50 AUDIO
    TITLE "4:cjc157_5586"
    INDEX 01 01:07:66
  TRACK 51 AUDIO
    TITLE "0:"
    INDEX 01 01:09:12
  TRACK 52 AUDIO
    TITLE "5:cjc157_5587"
    INDEX 01 01:09:65
  TRACK 53 AUDIO
    TITLE "0:"
    INDEX 01 01:12:70
  TRACK 54 AUDIO
    TITLE "3:cjc157_5588"
    INDEX 01 01:13:44
  TRACK 55 AUDIO
    TITLE "0:"
    INDEX 01 01:15:05
  TRACK 56 AUDIO
    TITLE "4:cjc157_5589"
    INDEX 01 01:15:50
  TRACK 57 AUDIO
    TITLE "0:"
    INDEX 01 01:17:16
  TRACK 58 AUDIO
    TITLE "5:cjc157_5590"
    INDEX 01 01:17:63
  TRACK 59 AUDIO
    TITLE "0:"
    INDEX 01 01:20:69
  TRACK 60 AUDIO
    TITLE "3:cjc157_5591"
    INDEX 01 01:21:41
  TRACK 61 AUDIO
    TITLE "0:"
    INDEX 01 01:22:66
  TRACK 62 AUDIO
    TITLE "4:cjc157_5592"
    INDEX 01 01:23:38
  TRACK 63 AUDIO
    TITLE "0:"
    INDEX 01 01:24:65
  TRACK 64 AUDIO
    TITLE "5:cjc157_5593"
    INDEX 01 01:25:37
  TRACK 65 AUDIO
    TITLE "0:"
    INDEX 01 01:28:22
